{
	"asset":{
		"version":"2.0",
		"generator":"Maxon Cinema 4D 2023.2.1 (#200000219)"
	},
	"scenes":[{
		"nodes":[0]
	}],
	"accessors":[{
		"bufferView":0,
		"type":"SCALAR",
		"componentType":5126,
		"count":3,
		"byteOffset":0,
		"min":[0.0],
		"max":[5.333333492279053]
	},
	{
		"bufferView":0,
		"type":"VEC3",
		"componentType":5126,
		"count":3,
		"byteOffset":12,
		"min":[0.2638859450817108,
		24.782621383666993,
		-4.546114444732666],
		"max":[0.2638859450817108,
		24.782621383666993,
		-4.546114444732666]
	},
	{
		"bufferView":1,
		"type":"SCALAR",
		"componentType":5126,
		"count":3,
		"byteOffset":0,
		"min":[0.0],
		"max":[5.333333492279053]
	},
	{
		"bufferView":1,
		"type":"VEC4",
		"componentType":5126,
		"count":3,
		"byteOffset":12,
		"min":[0.0,
		0.0,
		0.0,
		-1.0],
		"max":[0.0,
		0.0,
		0.0,
		-1.0]
	},
	{
		"bufferView":2,
		"type":"SCALAR",
		"componentType":5126,
		"count":3,
		"byteOffset":0,
		"min":[0.0],
		"max":[5.333333492279053]
	},
	{
		"bufferView":2,
		"type":"VEC3",
		"componentType":5126,
		"count":3,
		"byteOffset":12,
		"min":[1.0,
		1.0,
		1.0],
		"max":[1.0,
		1.0,
		1.0]
	},
	{
		"bufferView":3,
		"type":"SCALAR",
		"componentType":5123,
		"count":20928,
		"byteOffset":0,
		"min":[0],
		"max":[3934]
	},
	{
		"bufferView":4,
		"type":"VEC3",
		"componentType":5126,
		"count":3935,
		"byteOffset":0,
		"min":[-1.2673771381378174,
		-1.2578765153884888,
		-0.36972296237945559],
		"max":[0.8840557932853699,
		1.4646224975585938,
		0.11059845983982086]
	},
	{
		"bufferView":4,
		"type":"VEC3",
		"componentType":5126,
		"count":3935,
		"byteOffset":12,
		"min":[-1.0,
		-0.9999988079071045,
		-1.0],
		"max":[1.0,
		0.9947328567504883,
		1.0]
	},
	{
		"bufferView":4,
		"type":"VEC2",
		"componentType":5126,
		"count":3935,
		"byteOffset":24,
		"min":[0.0,
		0.0],
		"max":[1.0,
		1.0]
	},
	{
		"bufferView":5,
		"type":"SCALAR",
		"componentType":5126,
		"count":3,
		"byteOffset":0,
		"min":[0.0],
		"max":[5.333333492279053]
	},
	{
		"bufferView":5,
		"type":"VEC3",
		"componentType":5126,
		"count":3,
		"byteOffset":12,
		"min":[0.5914103388786316,
		5.799243927001953,
		0.7110095024108887],
		"max":[0.5914103388786316,
		7.5315728187561039,
		0.7110095024108887]
	},
	{
		"bufferView":6,
		"type":"SCALAR",
		"componentType":5126,
		"count":6,
		"byteOffset":0,
		"min":[0.0],
		"max":[5.333333492279053]
	},
	{
		"bufferView":6,
		"type":"VEC4",
		"componentType":5126,
		"count":6,
		"byteOffset":24,
		"min":[0.0,
		-0.2923716902732849,
		0.0,
		-0.9563047289848328],
		"max":[0.0,
		0.9563047289848328,
		0.0,
		0.9563047289848328]
	},
	{
		"bufferView":7,
		"type":"SCALAR",
		"componentType":5126,
		"count":3,
		"byteOffset":0,
		"min":[0.0],
		"max":[5.333333492279053]
	},
	{
		"bufferView":7,
		"type":"VEC3",
		"componentType":5126,
		"count":3,
		"byteOffset":12,
		"min":[1.0,
		1.0,
		1.0],
		"max":[1.0,
		1.0,
		1.0]
	},
	{
		"bufferView":8,
		"type":"SCALAR",
		"componentType":5123,
		"count":56832,
		"byteOffset":0,
		"min":[0],
		"max":[9710]
	},
	{
		"bufferView":9,
		"type":"VEC3",
		"componentType":5126,
		"count":9711,
		"byteOffset":0,
		"min":[-3.517143487930298,
		4.947677135467529,
		-1.1248066425323487],
		"max":[-3.132302761077881,
		5.2843451499938969,
		-0.7399659156799316]
	},
	{
		"bufferView":9,
		"type":"VEC3",
		"componentType":5126,
		"count":9711,
		"byteOffset":12,
		"min":[-1.0,
		-1.0,
		-1.0],
		"max":[1.0,
		1.0,
		1.0]
	},
	{
		"bufferView":9,
		"type":"VEC2",
		"componentType":5126,
		"count":9711,
		"byteOffset":24,
		"min":[0.0,
		0.0],
		"max":[1.0,
		1.0]
	},
	{
		"bufferView":10,
		"type":"SCALAR",
		"componentType":5123,
		"count":16320,
		"byteOffset":0,
		"min":[0],
		"max":[3208]
	},
	{
		"bufferView":11,
		"type":"VEC3",
		"componentType":5126,
		"count":3209,
		"byteOffset":0,
		"min":[-1.2250187397003174,
		-2.24343204498291,
		-1.175551414489746],
		"max":[0.9274259209632874,
		3.127389430999756,
		-0.6805717945098877]
	},
	{
		"bufferView":11,
		"type":"VEC3",
		"componentType":5126,
		"count":3209,
		"byteOffset":12,
		"min":[-1.0,
		-1.0,
		-1.0],
		"max":[1.0,
		0.9998899102210999,
		1.0]
	},
	{
		"bufferView":11,
		"type":"VEC2",
		"componentType":5126,
		"count":3209,
		"byteOffset":24,
		"min":[0.0,
		0.0],
		"max":[1.0,
		1.0]
	},
	{
		"bufferView":12,
		"type":"SCALAR",
		"componentType":5126,
		"count":2,
		"byteOffset":0,
		"min":[0.0],
		"max":[5.333333492279053]
	},
	{
		"bufferView":12,
		"type":"VEC3",
		"componentType":5126,
		"count":2,
		"byteOffset":8,
		"min":[1.012532114982605,
		2.331690788269043,
		1.3939542770385743],
		"max":[1.012532114982605,
		2.331690788269043,
		1.3939542770385743]
	},
	{
		"bufferView":13,
		"type":"SCALAR",
		"componentType":5126,
		"count":2,
		"byteOffset":0,
		"min":[0.0],
		"max":[5.333333492279053]
	},
	{
		"bufferView":13,
		"type":"VEC4",
		"componentType":5126,
		"count":2,
		"byteOffset":8,
		"min":[0.0,
		-0.2923716902732849,
		0.0,
		-0.9563047289848328],
		"max":[0.0,
		-0.2923716902732849,
		0.0,
		-0.9563047289848328]
	},
	{
		"bufferView":14,
		"type":"SCALAR",
		"componentType":5126,
		"count":2,
		"byteOffset":0,
		"min":[0.0],
		"max":[5.333333492279053]
	},
	{
		"bufferView":14,
		"type":"VEC3",
		"componentType":5126,
		"count":2,
		"byteOffset":8,
		"min":[1.0,
		1.0,
		1.0],
		"max":[1.0,
		1.0,
		1.0]
	}],
	"nodes":[{
		"name":"perfume",
		"translation":[0.2638859450817108,
		0.09870129078626633,
		0.13662949204444886],
		"rotation":[0.0,
		0.0,
		0.0,
		-1.0],
		"scale":[1.0,
		1.0,
		1.0],
		"children":[1,
		2,
		3]
	},
	{
		"name":"tapa.1",
		"mesh":0,
		"translation":[0.5914103388786316,
		5.799243927001953,
		0.7110095024108887],
		"rotation":[0.0,
		-0.2923716902732849,
		0.0,
		-0.9563047289848328],
		"scale":[1.0,
		1.0,
		1.0]
	},
	{
		"name":"difusor.2",
		"mesh":1,
		"translation":[3.691868782043457,
		-0.003261852078139782,
		-0.41422829031944277],
		"rotation":[0.0,
		-0.2923716902732849,
		0.0,
		-0.9563047289848328],
		"scale":[1.0,
		1.0,
		1.0]
	},
	{
		"name":"frasco perfume.1",
		"mesh":2,
		"translation":[1.012532114982605,
		2.331690788269043,
		1.3939542770385743],
		"rotation":[0.0,
		-0.2923716902732849,
		0.0,
		-0.9563047289848328],
		"scale":[1.0,
		1.0,
		1.0]
	}],
	"meshes":[{
		"name":"tapa.1",
		"primitives":[{
			"attributes":{
				"POSITION":7,
				"NORMAL":8,
				"TEXCOORD_0":9
			},
			"indices":6,
			"material":0
		}]
	},
	{
		"name":"difusor.2",
		"primitives":[{
			"attributes":{
				"POSITION":17,
				"NORMAL":18,
				"TEXCOORD_0":19
			},
			"indices":16,
			"material":1
		}]
	},
	{
		"name":"frasco perfume.1",
		"primitives":[{
			"attributes":{
				"POSITION":21,
				"NORMAL":22,
				"TEXCOORD_0":23
			},
			"indices":20,
			"material":0
		}]
	}],
	"bufferViews":[{
		"buffer":0,
		"byteOffset":0,
		"byteLength":48
	},
	{
		"buffer":0,
		"byteOffset":48,
		"byteLength":60
	},
	{
		"buffer":0,
		"byteOffset":108,
		"byteLength":48
	},
	{
		"buffer":1,
		"byteOffset":0,
		"byteLength":41856,
		"target":34963
	},
	{
		"buffer":1,
		"byteOffset":41856,
		"byteLength":125920,
		"target":34962,
		"byteStride":32
	},
	{
		"buffer":2,
		"byteOffset":0,
		"byteLength":48
	},
	{
		"buffer":2,
		"byteOffset":48,
		"byteLength":120
	},
	{
		"buffer":2,
		"byteOffset":168,
		"byteLength":48
	},
	{
		"buffer":3,
		"byteOffset":0,
		"byteLength":113664,
		"target":34963
	},
	{
		"buffer":3,
		"byteOffset":113664,
		"byteLength":310752,
		"target":34962,
		"byteStride":32
	},
	{
		"buffer":4,
		"byteOffset":0,
		"byteLength":32640,
		"target":34963
	},
	{
		"buffer":4,
		"byteOffset":32640,
		"byteLength":102688,
		"target":34962,
		"byteStride":32
	},
	{
		"buffer":5,
		"byteOffset":0,
		"byteLength":32
	},
	{
		"buffer":5,
		"byteOffset":32,
		"byteLength":40
	},
	{
		"buffer":5,
		"byteOffset":72,
		"byteLength":32
	}],
	"buffers":[{
		"uri":"data:application/octet-stream;base64,",
		"byteLength":156
	},
	{
		"uri":"data:application/octet-stream;base64,",
		"byteLength":167776
	},
	{
		"uri":"data:application/octet-stream;base64,",
		"byteLength":216
	},
	{
		"uri":"data:application/octet-stream;base64,",
		"byteLength":424416
	},
	{
		"uri":"data:application/octet-stream;base64,",
		"byteLength":135328
	},
	{
		"uri":"data:application/octet-stream;base64,",
		"byteLength":104
	}],
	"materials":[{
		"pbrMetallicRoughness":{
			"baseColorFactor":[0.6714999999999998,
			0.7031000000000006,
			0.7899999999999998,
			1.0],
			"metallicFactor":0.0,
			"roughnessFactor":0.13999999952502549
		},
		"emissiveFactor":[0.0,
		0.0,
		0.0],
		"alphaMode":"OPAQUE",
		"doubleSided":false,
		"name":"met- perfume"
	},
	{
		"pbrMetallicRoughness":{
			"baseColorFactor":[0.5799999999999999,
			0.5799999999999999,
			0.5799999999999999,
			1.0],
			"metallicFactor":1.0,
			"roughnessFactor":0.37700001790653916
		},
		"emissiveFactor":[0.0,
		0.0,
		0.0],
		"alphaMode":"OPAQUE",
		"doubleSided":false,
		"name":"RS Standard.2"
	}],
	"animations":[{
		"samplers":[{
			"input":0,
			"interpolation":"LINEAR",
			"output":1
		},
		{
			"input":2,
			"interpolation":"LINEAR",
			"output":3
		},
		{
			"input":4,
			"interpolation":"LINEAR",
			"output":5
		},
		{
			"input":10,
			"interpolation":"LINEAR",
			"output":11
		},
		{
			"input":12,
			"interpolation":"LINEAR",
			"output":13
		},
		{
			"input":14,
			"interpolation":"LINEAR",
			"output":15
		},
		{
			"input":24,
			"interpolation":"LINEAR",
			"output":25
		},
		{
			"input":26,
			"interpolation":"LINEAR",
			"output":27
		},
		{
			"input":28,
			"interpolation":"LINEAR",
			"output":29
		}],
		"channels":[{
			"sampler":0,
			"target":{
				"node":0,
				"path":"translation"
			}
		},
		{
			"sampler":1,
			"target":{
				"node":0,
				"path":"rotation"
			}
		},
		{
			"sampler":2,
			"target":{
				"node":0,
				"path":"scale"
			}
		},
		{
			"sampler":3,
			"target":{
				"node":1,
				"path":"translation"
			}
		},
		{
			"sampler":4,
			"target":{
				"node":1,
				"path":"rotation"
			}
		},
		{
			"sampler":5,
			"target":{
				"node":1,
				"path":"scale"
			}
		},
		{
			"sampler":6,
			"target":{
				"node":3,
				"path":"translation"
			}
		},
		{
			"sampler":7,
			"target":{
				"node":3,
				"path":"rotation"
			}
		},
		{
			"sampler":8,
			"target":{
				"node":3,
				"path":"scale"
			}
		}]
	}]
}